PathFileType	4	(X/Y/Z)	RBDS014static.trc
DataRate	CameraRate	NumFrames	NumMarkers	Units	OrigDataRate	OrigDataStartFrame	OrigNumFrames
150.000000	150.000000	4	48	mm	150.000000	93	150
Frame#	Time	L.Ankle			L.Ankle.Medial			L.ASIS			L.GTR			L.Heel.Bottom			L.Heel.Lateral			L.Heel.Top			L.HF			L.Iliac.Crest			L.Knee			L.Knee.Medial			L.MT1			L.MT2			L.MT5			L.PSIS			L.Shank.Bottom.Lateral			L.Shank.Bottom.Medial			L.Shank.Top.Lateral			L.Shank.Top.Medial			L.Thigh.Bottom.Lateral			L.Thigh.Bottom.Medial			L.Thigh.Top.Lateral			L.Thigh.Top.Medial			L.TT			R.Ankle			R.Ankle.Medial			R.ASIS			R.GTR			R.Heel.Bottom			R.Heel.Lateral			R.Heel.Top			R.HF			R.Iliac.Crest			R.Knee			R.Knee.Medial			R.MT1			R.MT2			R.MT5			R.PSIS			R.Shank.Bottom.Lateral			R.Shank.Bottom.Medial			R.Shank.Top.Lateral			R.Shank.Top.Medial			R.Thigh.Bottom.Lateral			R.Thigh.Bottom.Medial			R.Thigh.Top.Lateral			R.Thigh.Top.Medial			R.TT			
		X1	Y1	Z1	X2	Y2	Z2	X3	Y3	Z3	X4	Y4	Z4	X5	Y5	Z5	X6	Y6	Z6	X7	Y7	Z7	X8	Y8	Z8	X9	Y9	Z9	X10	Y10	Z10	X11	Y11	Z11	X12	Y12	Z12	X13	Y13	Z13	X14	Y14	Z14	X15	Y15	Z15	X16	Y16	Z16	X17	Y17	Z17	X18	Y18	Z18	X19	Y19	Z19	X20	Y20	Z20	X21	Y21	Z21	X22	Y22	Z22	X23	Y23	Z23	X24	Y24	Z24	X25	Y25	Z25	X26	Y26	Z26	X27	Y27	Z27	X28	Y28	Z28	X29	Y29	Z29	X30	Y30	Z30	X31	Y31	Z31	X32	Y32	Z32	X33	Y33	Z33	X34	Y34	Z34	X35	Y35	Z35	X36	Y36	Z36	X37	Y37	Z37	X38	Y38	Z38	X39	Y39	Z39	X40	Y40	Z40	X41	Y41	Z41	X42	Y42	Z42	X43	Y43	Z43	X44	Y44	Z44	X45	Y45	Z45	X46	Y46	Z46	X47	Y47	Z47	X48	Y48	Z48	

94	0.62	714.9306640625	108.1364898681641	1042.29150390625	740.4218139648438	118.7495498657227	1127.96142578125	857.804443359375	1133.846557617188	1110.547973632813	777.687744140625	1022.670227050781	1053.423828125	643.4251708984375	41.52716827392578	1085.339111328125	665.9060668945313	65.26569366455078	1045.106567382813	652.9896850585938	92.19279479980469	1087.239624023438	777.526611328125	523.6338500976563	1039.50732421875	780.4191284179688	1192.033569335938	1070.285888671875	786.6235961914063	596.606201171875	1050.298095703125	781.0330810546875	576.4852294921875	1173.582153320313	876.79248046875	57.80179214477539	1132.543212890625	886.6097412109375	69.30411529541016	1088.672119140625	840.1173095703125	51.186767578125	1013.349975585938	676.5988159179688	1149.773071289063	1184.533447265625	725.7354736328125	207.7911682128906	1031.506713867188	682.6802368164063	210.5777130126953	1066.282104492188	722.0858154296875	287.7494812011719	1021.612365722656	680.7755126953125	291.168212890625	1056.0732421875	781.8092041015625	753.6360473632813	1030.9365234375	720.5247802734375	748.0098876953125	1069.575927734375	766.5819702148438	863.383056640625	1028.97900390625	711.39697265625	858.2484741210938	1069.119262695313	831.3999633789063	494.3453063964844	1097.327392578125	721.009033203125	108.2507476806641	1417.641967773438	748.2513427734375	126.1619720458984	1332.453247070313	860.2107543945313	1142.641967773438	1356.884521484375	795.9842529296875	1032.363891601563	1412.129028320313	646.1735229492188	43.07785415649414	1374.232055664063	669.6016235351563	66.42315673828125	1412.293579101563	654.974853515625	95.06880187988281	1371.756713867188	786.6962280273438	535.409423828125	1420.718994140625	796.613037109375	1208.6611328125	1382.3232421875	790.0323486328125	606.2645263671875	1411.884033203125	786.898681640625	582.3389892578125	1287.329223632813	879.3607177734375	58.67330551147461	1326.97314453125	890.1405029296875	72.53324890136719	1371.48388671875	846.9697875976563	51.7032470703125	1448.473754882813	684.6114501953125	1158.51220703125	1278.587890625	713.9652099609375	208.4267425537109	1422.779541015625	684.1484985351563	215.8062744140625	1381.789306640625	714.9129028320313	292.5570983886719	1434.99658203125	682.7649536132813	295.9483337402344	1392.8251953125	809.0786743164063	736.2985229492188	1428.916381835938	740.6399536132813	733.0177612304688	1403.304321289063	798.4497680664063	845.0689697265625	1436.344848632813	733.7647094726563	842.7077026367188	1410.033569335938	837.3574829101563	500.1077880859375	1358.425170898438	
95	0.6266666666666667	714.9193725585938	108.1313629150391	1042.290893554688	740.4361572265625	118.7468338012695	1127.964721679688	857.7572631835938	1133.858154296875	1110.561401367188	777.6510009765625	1022.673217773438	1053.433715820313	643.4102172851563	41.52669906616211	1085.336547851563	665.91162109375	65.2591552734375	1045.1103515625	652.9931640625	92.19045257568359	1087.238037109375	777.5060424804688	523.64697265625	1039.499389648438	780.3807983398438	1192.033569335938	1070.306396484375	786.5882568359375	596.6157836914063	1050.301513671875	781.0101318359375	576.4823608398438	1173.573486328125	876.793212890625	57.80442810058594	1132.5400390625	886.6103515625	69.31221771240234	1088.675537109375	840.1220092773438	51.18721389770508	1013.364868164063	676.548583984375	1149.7841796875	1184.539306640625	725.7171630859375	207.7862854003906	1031.515747070313	682.6669311523438	210.5743865966797	1066.298706054688	722.05615234375	287.7511901855469	1021.61865234375	680.7528076171875	291.1604309082031	1056.0791015625	781.7780151367188	753.634033203125	1030.936401367188	720.4822998046875	748.0181884765625	1069.559936523438	766.5548095703125	863.3800659179688	1028.978393554688	711.3694458007813	858.2572631835938	1069.10888671875	831.3771362304688	494.352783203125	1097.32568359375	720.9984741210938	108.2411804199219	1417.6396484375	748.240234375	126.1524505615234	1332.44921875	860.1939086914063	1142.630004882813	1356.878784179688	795.9671020507813	1032.364379882813	1412.137573242188	646.1670532226563	43.06920623779297	1374.2421875	669.5927734375	66.4156494140625	1412.298461914063	654.967529296875	95.05722045898438	1371.763305664063	786.6651611328125	535.4051513671875	1420.715209960938	796.5763549804688	1208.683227539063	1382.347900390625	789.993408203125	606.2515258789063	1411.891967773438	786.8469848632813	582.3289794921875	1287.343139648438	879.3513793945313	58.67335891723633	1326.965087890625	890.13330078125	72.53070068359375	1371.482177734375	846.9661254882813	51.70466232299805	1448.475219726563	684.58447265625	1158.508544921875	1278.613403320313	713.9514770507813	208.4103851318359	1422.779052734375	684.1217651367188	215.8031463623047	1381.797485351563	714.886474609375	292.5469665527344	1435.0068359375	682.7396240234375	295.9378356933594	1392.82568359375	809.05126953125	736.287841796875	1428.896728515625	740.6158447265625	733.0116577148438	1403.3173828125	798.4266357421875	845.058349609375	1436.34375	733.73388671875	842.6968994140625	1410.051879882813	837.3248901367188	500.0915222167969	1358.41748046875	
96	0.6333333333333334	714.9230346679688	108.1320190429688	1042.293701171875	740.4216918945313	118.7337646484375	1127.962890625	857.7134399414063	1133.852661132813	1110.567626953125	777.6187133789063	1022.671508789063	1053.439819335938	643.422119140625	41.52960968017578	1085.343139648438	665.9173583984375	65.26636505126953	1045.107055664063	652.9916381835938	92.18799591064453	1087.240844726563	777.4783325195313	523.6439208984375	1039.4931640625	780.3363037109375	1192.048828125	1070.310302734375	786.5635986328125	596.6138305664063	1050.302734375	780.990966796875	576.4884033203125	1173.586303710938	876.8004760742188	57.79243469238281	1132.54345703125	886.6136474609375	69.29893493652344	1088.66357421875	840.1143188476563	51.18692398071289	1013.355773925781	676.5259399414063	1149.78076171875	1184.569458007813	725.7045288085938	207.7954864501953	1031.505981445313	682.6744384765625	210.5657806396484	1066.294311523438	722.0430297851563	287.7515869140625	1021.623474121094	680.7454223632813	291.1571960449219	1056.09619140625	781.7482299804688	753.6412353515625	1030.9560546875	720.4495239257813	748.012939453125	1069.570068359375	766.5054321289063	863.3731689453125	1028.971923828125	711.406982421875	858.1498413085938	1069.150634765625	831.3599243164063	494.3481750488281	1097.320068359375	720.9898681640625	108.2359924316406	1417.657470703125	748.2279052734375	126.1549682617188	1332.455688476563	860.1490478515625	1142.627319335938	1356.8896484375	795.9446411132813	1032.351196289063	1412.144165039063	646.166015625	43.06048202514648	1374.238525390625	669.5996704101563	66.403564453125	1412.30517578125	654.9669799804688	95.04322814941406	1371.7626953125	786.6459350585938	535.4118041992188	1420.7109375	796.5577392578125	1208.683959960938	1382.357177734375	789.9711303710938	606.2554931640625	1411.877319335938	786.7817993164063	582.336181640625	1287.327392578125	879.3566284179688	58.67198944091797	1326.96533203125	890.1201782226563	72.53150177001953	1371.482666015625	846.9654541015625	51.70843505859375	1448.473022460938	684.5419311523438	1158.518432617188	1278.61474609375	713.9412841796875	208.3968505859375	1422.784301757813	684.0958251953125	215.7924194335938	1381.802856445313	714.8792724609375	292.5300598144531	1435.006103515625	682.712158203125	295.9253540039063	1392.828247070313	809.022216796875	736.2699584960938	1428.902465820313	740.5870361328125	732.9920043945313	1403.337768554688	798.3958129882813	845.0447387695313	1436.36279296875	733.7056274414063	842.692626953125	1410.0966796875	837.2982177734375	500.0977172851563	1358.412963867188	
97	0.64	714.92626953125	108.1230392456055	1042.28271484375	740.4242553710938	118.7423934936523	1127.968139648438	857.6729125976563	1133.853637695313	1110.58251953125	777.5641479492188	1022.682006835938	1053.450561523438	643.4273071289063	41.52481460571289	1085.345458984375	665.9164428710938	65.26119232177734	1045.109130859375	652.9954833984375	92.17707061767578	1087.2431640625	777.4691772460938	523.6567993164063	1039.486450195313	780.304931640625	1192.050659179688	1070.336181640625	786.5438842773438	596.6234741210938	1050.288208007813	780.9681396484375	576.4954223632813	1173.582885742188	876.8045043945313	57.79737854003906	1132.552612304688	886.6224365234375	69.30531311035156	1088.662109375	840.119873046875	51.18730163574219	1013.359375	676.4823608398438	1149.789916992188	1184.578857421875	725.705810546875	207.7915954589844	1031.511474609375	682.665771484375	210.5671844482422	1066.298706054688	722.0335083007813	287.7539978027344	1021.635009765625	680.7252807617188	291.1527099609375	1056.09326171875	781.72119140625	753.6424560546875	1030.947509765625	720.4285888671875	747.996826171875	1069.57568359375	766.4661254882813	863.3713989257813	1028.978881835938	711.2891235351563	858.2485961914063	1069.114990234375	831.3406372070313	494.33984375	1097.314819335938	720.9871215820313	108.2347869873047	1417.651245117188	748.2238159179688	126.1523742675781	1332.46240234375	860.11572265625	1142.615112304688	1356.894897460938	795.9225463867188	1032.3427734375	1412.15576171875	646.1614379882813	43.05707168579102	1374.2490234375	669.5888671875	66.40351104736328	1412.31103515625	654.952880859375	95.03407287597656	1371.771240234375	786.62939453125	535.3949584960938	1420.708251953125	796.533935546875	1208.69677734375	1382.370849609375	789.953125	606.2520751953125	1411.874633789063	786.7423706054688	582.3316650390625	1287.33740234375	879.3427734375	58.67457962036133	1326.9736328125	890.1170654296875	72.53272247314453	1371.484497070313	846.966796875	51.70824813842773	1448.482177734375	684.509765625	1158.525634765625	1278.646728515625	713.9241943359375	208.3867950439453	1422.784057617188	684.0816650390625	215.7790222167969	1381.804931640625	714.8617553710938	292.5144348144531	1435.013671875	682.6903686523438	295.9127807617188	1392.838989257813	808.9917602539063	736.2549438476563	1428.892333984375	740.5614013671875	732.9780883789063	1403.341552734375	798.3673706054688	845.0230102539063	1436.376953125	733.681640625	842.6608276367188	1410.105712890625	837.2738037109375	500.0816345214844	1358.406005859375	
